<svg viewBox="44.41 128.87 487.19 318.26" id="Layer_2" data-name="Layer 2" xmlns="http://www.w3.org/2000/svg">
  <defs>
    <style>
      .cls-1 {
        fill: none;
      }

      .cls-1, .cls-2, .cls-3 {
        stroke-width: 0px;
      }

      .cls-2 {
        fill-rule: evenodd;
      }

      .cls-2, .cls-3 {
        fill: #d8b56d;
      }
    </style>
  </defs>
  <g id="Layer_1-2" data-name="Layer 1">
    <g>
      <path class="cls-2" d="M186.79,219.09c0,9.78,3.95,20.44,7.15,29.28,4.16,11.5,9.53,25.11,6.41,37.66-.69,2.79-3.14,6.62-6.57,5.61-5.46-1.63,2.45-18.33-13.76-18.33-14.47,0-16.76,19.43-2.31,30.26,3.27,2.45,4.5,3.29,8.92,4.63,11.49,3.47,27.29,1.52,36.45-6.21,4.14-3.49,7.71-7.84,10.14-12.73,11.75-23.58,4-48,8.35-55.61.57-1,1.22-1.83,1.86-2.8,2.15-3.25,6.14-6.97,9.22-9.41,1.27-1.01,1.21-1.54,2.72-1.94l-11.6-15.08c-3.43-5.18-8.3-12.77-8.3-20.08s2.71-15.98,5.15-21.1c6.11-12.79,19.76-17.54,22.49-3.59.71,3.64,0,19.67.7,28.1.53,6.48-.62,14.42.08,20.68.53,4.71.38,10.78.37,16.17l-.97,23.59c-.28,2.07-.55,5.39-.75,7.73-.4,4.77-1.6,16.88-4.12,20.87-2.15,3.4-5.92,5.36-9.41,7.1-.97.48-1.72.89-2.82,1.42-4.63,2.23-9.1,4.19-12.1,8.65-2.04,3.03-3.53,9.2-.84,12.89,2.72,3.73,7.09,3.59,12.26,2.35,4.42-1.05,8.11-2.99,12.46-4.05,18.27-4.49,48.08-5.3,65.72,1.86,22.84,9.27,22.46-6.4,18.54-12.62-4.38-6.95-13.31-8.91-19.83-13.2-4.48-2.95-5.73-4.82-6.69-10.24-.88-4.96-1.38-9.17-2.13-14.4-.34-2.42-.59-4.97-.66-7.39-.06-2.05-.33-1.95-.43-3.81-.23-4.42-.12-17.2-.53-20.22-.63-4.53.78-56.37.94-64.52.24-11.74,14.4-13.6,22.18,1.99,3.13,6.27,5.36,15.55,5.36,23.87,0,10.79-15.05,26.01-19.47,32.62,1.82,2.73,9.17,7.25,13.11,13.99,4.37,7.48-.88,24.68,3.56,42.18,1.2,4.73,2.38,9.16,4.78,13.43,4.07,7.26,9.22,13.56,16.73,17.15,11.53,5.51,28.59,5.77,38.88-2.03,11.89-9.02,13.36-24.73,3.52-29.37-4.64-2.19-11.3-1.24-14.65,2.56-3.08,3.5-.95,14.24-5,14.71-6.21.72-7.16-7.76-7.16-12.9,0-15.03,7.59-29.58,11.71-43.77,3.61-12.45,3.09-24.68.54-37.1-9.04-44.03-52.24-69.07-95.22-69.07-13.1,0-26.08.73-38.05,4.29-1.43.42-3.12.78-4.66,1.27-9.91,3.16-18.66,8.15-27.23,13.84-3.35,2.23-6.63,5.11-9.55,7.82l-5.72,6.14c-8.86,9.08-14.62,23.32-17.41,35.52-.83,3.61-1.11,6.29-1.65,10.21-.38,2.75-.72,7.91-.72,11.14"></path>
      <path class="cls-3" d="M519.29,361.48v-9.11h4.04c.81,0,1.43.08,1.85.25.42.16.76.45,1.01.86.25.42.37.87.37,1.38,0,.65-.21,1.19-.62,1.63-.42.44-1.06.73-1.94.85.32.15.56.3.73.45.35.32.68.73,1,1.21l1.57,2.48h-1.5l-1.2-1.9c-.35-.55-.64-.97-.87-1.26-.23-.29-.44-.49-.61-.61-.18-.11-.36-.19-.55-.24-.13-.03-.36-.04-.67-.04h-1.39v4.05h-1.21ZM520.5,356.39h2.58c.55,0,.98-.06,1.29-.17.31-.11.55-.29.7-.55.16-.25.24-.52.24-.82,0-.43-.16-.79-.47-1.06-.31-.28-.8-.41-1.47-.41h-2.88v3.01Z"></path>
      <path class="cls-2" d="M522.84,348.33c4.84,0,8.76,3.93,8.76,8.77s-3.92,8.77-8.76,8.77-8.76-3.92-8.76-8.77,3.92-8.77,8.76-8.77M522.84,350.06c4.25,0,7.07,2.78,7.07,7.04s-2.82,7.08-7.07,7.08-7.07-2.82-7.07-7.08,2.81-7.04,7.07-7.04Z"></path>
      <path class="cls-2" d="M57.95,383.02l-.49-.83.49.83ZM57.95,383.02l.85,2.96c.24,1.01.56,2.19.74,3.07.5,2.39.93,3.9,1.46,6.16l8.38,37.37h8.47l7.37-31.18c.73-3.2,4.06-17.2,4.06-19.23l.42,63.54h14.4v-93.19h-19.48c0,2-.66,4.13-1.1,6.09-.51,2.22-.98,4.19-1.4,6.22l-8.44,36.33-10.64-48.65c-3.01,0-6.82.2-9.73-.04l-8.9.04v93.19h13.55v-62.69Z"></path>
      <path class="cls-2" d="M347.94,393.19h-5.51v-27.53c13.38,0,15.24.79,15.24,16.52,0,6.78-2.96,11.01-9.74,11.01M328.04,445.71h14.39v-39.39h6.35c.05,2.07,9.63,33.49,11.01,39.39h15.24c-.63-1.3-1.21-3.78-1.6-5.17l-4.84-15.91c-.78-2.79-6.21-19.37-6.26-21.69,5.45-1.46,9.74-11.83,9.74-19.06,0-10.35.84-23.99-11.72-29.36-2.26-.97-5.58-1.98-8.6-1.98h-23.7v93.19Z"></path>
      <polygon class="cls-2" points="257.34 445.71 271.73 445.71 271.73 405.05 288.25 405.05 288.25 445.71 302.64 445.71 302.64 352.52 288.25 352.52 288.25 391.49 271.73 391.49 271.73 352.52 257.34 352.52 257.34 445.71"></polygon>
      <path class="cls-2" d="M418.21,433.85c-2.79,0-4.48-.76-5.9-2.14-.06-.06-.15-.15-.21-.21-.06-.06-.15-.15-.21-.22l-1.31-2.08c-.47-1-.84-1.9-.84-3.4v-53.37c0-9.19,12.67-10.88,15.73-3.45,2.08,5.06,1.21,42.07,1.21,49.62,0,6.69-.2,15.25-8.47,15.25M394.93,377.09v44.05c0,10.36,3.11,19.37,11.56,23.59,7.92,3.95,21.73,3.49,29.19-4.84,3.19-3.56,5.4-10.34,5.4-17.05v-47.02c0-12.94-5.95-22.28-17.95-24.4-.95-.17-5.11-.52-5.65-.48-15.86,1.29-22.55,9.84-22.55,26.15Z"></path>
      <path class="cls-2" d="M488.06,433.85l-4-.66c-2.88-1.1-4.89-4.41-4.89-7.82v-52.52c0-2.22,1.07-4.62,2.2-5.84,4.67-5.01,14.73-3.59,14.73,7.96v48.29c0,5.75-2.4,10.59-8.04,10.59M464.78,372.43v52.53c0,11.9,8.29,22.03,20.74,22.03,8.27,0,13.39-.45,19.37-6.88,3.55-3.82,5.6-9.62,5.6-16.85v-48.29c0-7.32-2.05-13.32-5.81-17.05-6.01-5.97-8.54-5.85-16.04-6.86-2.29-.31-7.6.53-9.71,1.23-5.35,1.78-9.72,5.59-12.04,10.82-.96,2.16-2.11,6.2-2.11,9.32Z"></path>
      <path class="cls-2" d="M150.66,372.85h.42c0,2.99.96,6.57,1.31,9.71l4.2,28.84h-11.43c.11-1.29.57-3.66.73-4.78.26-2,.35-3,.62-4.89.42-2.98.9-6.25,1.44-9.57l2.73-19.3ZM125.68,445.71c16.67,0,14.39,1.4,15.12-3.94l2.24-17.24h15.66l2.97,21.18h14.39c0-2.46-.49-3.79-.85-5.93-3.36-20.5-8.28-45.09-11.13-64.69l-3.54-20.18c-.21-1.38.08-2.39-1.41-2.39h-17.36l-7.93,46.7c-2.39,12.19-5.68,35.89-8.15,46.49Z"></path>
      <path class="cls-2" d="M193.42,372.01c0,12.03,3.06,17.43,10.68,25.74l7.84,6.98c1.05,1,1.53,1.17,2.55,2.11,2.28,2.11,5.16,5.4,6.71,8.12,1.86,3.28,5.22,18.9-6.18,18.9-2.89,0-5.39-1.14-6.52-3.22-1.83-3.39-.81-7.94-1.08-10.82-.2-2.13-.65-1.49-5.23-.91-3.12.4-6.07.34-8.77.97,0,9.15-.1,14.05,3.8,19.5,5.21,7.28,12.63,7.61,20.76,7.61,5.86,0,10.8-2.41,14.51-6.24,6.91-7.14,6.19-25.51,1.08-33.93-2.09-3.45-5.64-8.06-8.71-10.77l-10.37-9.11c-3.91-4.49-6.67-7.76-6.67-14.51,0-1.94.54-4.23,1.34-5.44,2.82-4.25,12.63-3.84,12.63,4.17v4.66c5.56,0,10.25-1.19,13.97-1.27,0-7.49-.38-13.53-6.24-18.74-1.77-1.57-4.21-2.91-6.54-3.62-7.97-2.43-18.81-1.1-24.17,4.45-3.84,3.98-5.38,9.53-5.38,15.37"></path>
    </g>
    <rect class="cls-1" width="576" height="576"></rect>
  </g>
</svg>